<?xml version="1.0" standalone="no"?>
<!DOCTYPE svg PUBLIC "-//W3C//DTD SVG 20010904//EN"
 "http://www.w3.org/TR/2001/REC-SVG-20010904/DTD/svg10.dtd">
<svg version="1.0" xmlns="http://www.w3.org/2000/svg"
 width="91.000000pt" height="91.000000pt" viewBox="0 0 91.000000 91.000000"
 preserveAspectRatio="xMidYMid meet">
<metadata>
Created by potrace 1.14, written by Peter Selinger 2001-2017
</metadata>
<g transform="translate(0.000000,91.000000) scale(0.100000,-0.100000)"
fill="#000000" stroke="none">
<path d="M0 460 l0 -350 455 0 455 0 0 350 0 350 -455 0 -455 0 0 -350z m549
232 c25 -27 53 -59 62 -72 13 -20 18 -21 38 -10 13 6 53 13 89 14 61 1 67 -1
79 -24 10 -17 13 -53 11 -115 -3 -77 -8 -98 -33 -143 -140 -256 -500 -252
-627 6 -40 80 -50 184 -24 245 14 35 18 37 59 37 24 0 65 -6 90 -14 l47 -14
35 49 c41 55 82 88 109 89 10 0 40 -22 65 -48z"/>
<path d="M435 649 c-71 -85 -93 -198 -58 -299 11 -30 24 -54 29 -53 5 1 12 22
15 46 4 25 12 54 18 65 16 30 14 38 -19 76 -19 21 -28 40 -24 50 9 24 27 20
59 -14 l29 -30 43 43 c23 23 43 47 43 53 0 19 -71 94 -90 94 -10 0 -30 -14
-45 -31z"/>
<path d="M187 573 c-4 -3 -7 -36 -7 -72 0 -71 21 -129 67 -189 26 -35 107 -92
129 -92 7 0 -3 29 -24 71 -36 69 -37 76 -36 170 l1 99 -36 10 c-42 11 -85 13
-94 3z"/>
<path d="M672 565 c-60 -19 -113 -58 -151 -109 -38 -54 -65 -153 -56 -207 13
-78 42 -26 32 58 -8 71 25 127 39 66 3 -16 9 -41 13 -58 l7 -30 19 28 c13 20
20 54 23 110 4 78 12 97 40 97 8 0 12 -22 12 -77 0 -68 -5 -87 -34 -148 -19
-38 -33 -72 -30 -74 9 -9 57 21 103 64 66 62 93 129 89 221 -3 69 -3 69 -33
71 -16 1 -49 -4 -73 -12z"/>
</g>
</svg>
